<?xml version="1.0" encoding="UTF-8"?>
<svg version="1.1" xmlns="http://www.w3.org/2000/svg" width="1080" height="1080">
<path d="M0 0 C356.4 0 712.8 0 1080 0 C1080 356.4 1080 712.8 1080 1080 C723.6 1080 367.2 1080 0 1080 C0 723.6 0 367.2 0 0 Z " fill="#FF169E" transform="translate(0,0)"/>
<path d="M0 0 C356.96485008 0 356.96485008 0 380.5 4.25 C381.71647217 4.46688477 382.93294434 4.68376953 384.1862793 4.90722656 C425.53198461 12.51364615 468.71681367 28.46426087 498 60 C498.825 60.825 499.65 61.65 500.5 62.5 C501.7375 63.7375 501.7375 63.7375 503 65 C503.48726562 65.44085938 503.97453125 65.88171875 504.4765625 66.3359375 C525.09821298 85.58932681 536.83315266 114.06742233 543 141 C543.1767627 141.74773682 543.35352539 142.49547363 543.53564453 143.26586914 C553.51213584 186.38483781 546.53504514 235.1840762 523.70556641 273.15283203 C521.04410732 277.29854636 518.10676438 281.18047946 515 285 C514.5565625 285.55333008 514.113125 286.10666016 513.65625 286.67675781 C491.37897094 314.31767153 463.55930653 331.81356449 430 343 C430.825 343.26103516 431.65 343.52207031 432.5 343.79101562 C463.131416 353.55136079 463.131416 353.55136079 476 361 C477.67449219 361.95132813 477.67449219 361.95132813 479.3828125 362.921875 C496.60688114 373.1015846 511.79886684 386.14951891 524 402 C524.78761719 402.96035156 525.57523438 403.92070313 526.38671875 404.91015625 C544.42014175 427.30330789 556.36599499 454.25327156 560.63574219 482.64575195 C560.90838212 484.40786109 561.20460563 486.1663495 561.51269531 487.92260742 C566.55744121 517.73308485 562.8622522 550.56572882 553 579 C552.77086914 579.66950684 552.54173828 580.33901367 552.30566406 581.02880859 C536.48275971 626.18953634 501.30393108 660.14244553 458.84619141 680.68603516 C437.60956049 690.49007938 414.8838104 696.89372451 391.875 700.8125 C390.73401855 701.0074707 389.59303711 701.20244141 388.41748047 701.40332031 C366.15298817 704.93796042 343.90238057 705.28934126 321.4177651 705.23214546 C317.02896086 705.22328999 312.6401602 705.22634259 308.25134945 705.2277813 C299.76662683 705.22883632 291.28194721 705.21968332 282.79723557 705.20677864 C272.96438835 705.19227657 263.1315663 705.19078359 253.29870605 705.18920898 C227.38663064 705.17874397 201.47456466 705.15082146 175.5625 705.125 C117.626875 705.08375 59.69125 705.0425 0 705 C0 472.35 0 239.7 0 0 Z " fill="#FFFEFE" transform="translate(271,186)"/>
<path d="M0 0 C22.543125 -0.061875 45.08625 -0.12375 68.3125 -0.1875 C78.9382019 -0.22846802 78.9382019 -0.22846802 89.77856445 -0.27026367 C98.51599121 -0.28381348 98.51599121 -0.28381348 102.62321472 -0.28633118 C105.45495344 -0.28909461 108.2865186 -0.30020849 111.11820984 -0.31672668 C144.9368792 -0.50521324 173.68031603 2.72839171 199.0859375 26.9921875 C208.50701787 36.92481975 213.22360802 48.83958829 216 62 C216.1757959 62.79269287 216.3515918 63.58538574 216.53271484 64.40209961 C220.05475268 83.98308425 216.3829958 105.84892899 205.71484375 122.59765625 C192.37892519 141.28009341 172.32984889 150.6527843 150.19122887 154.58123398 C144.23034631 155.36344521 138.2583047 155.26010219 132.25708008 155.22705078 C130.78393152 155.22643678 129.31078238 155.22670736 127.83763409 155.2277813 C123.92447816 155.22822925 120.01144677 155.21671333 116.09832001 155.20256042 C112.41429795 155.19109459 108.73030483 155.19063008 105.04626465 155.18920898 C94.3016602 155.17875167 83.55707849 155.15082914 72.8125 155.125 C48.784375 155.08375 24.75625 155.0425 0 155 C0 103.85 0 52.7 0 0 Z " fill="#FF169E" transform="translate(443,597)"/>
<path d="M0 0 C21.45 -0.061875 42.9 -0.12375 65 -0.1875 C75.11849609 -0.22846802 75.11849609 -0.22846802 85.44140625 -0.27026367 C93.74804688 -0.28381348 93.74804688 -0.28381348 97.65014648 -0.28633118 C100.34628467 -0.29090536 103.04198469 -0.30023471 105.73803711 -0.31672668 C134.77572226 -0.48654564 160.39418524 1.98729205 182.234375 23.14453125 C196.32697185 37.69493845 200.50067892 56.12508832 200.35351562 75.81152344 C199.8741812 95.67651135 193.44185889 113.96090212 179 128 C160.98773133 143.02083182 137.48401881 147.37002193 114.66064453 147.22705078 C113.39019728 147.22729185 112.11975002 147.22753292 110.81080437 147.2277813 C107.42200204 147.22822668 104.03334542 147.21676661 100.64457703 147.20256042 C97.44656813 147.19103873 94.24856424 147.19062711 91.05053711 147.18920898 C81.74200598 147.17877878 72.43350107 147.15085631 63.125 147.125 C42.29375 147.08375 21.4625 147.0425 0 147 C0 98.49 0 49.98 0 0 Z " fill="#FF169E" transform="translate(443,324)"/>
<path d="M0 0 C0.33 0 0.66 0 1 0 C1 61.05 1 122.1 1 185 C-60.05 185 -121.1 185 -184 185 C-184 184.67 -184 184.34 -184 184 C-182.99924438 183.86537354 -182.99924438 183.86537354 -181.97827148 183.72802734 C-126.97311526 176.1796824 -76.37910002 153.27046396 -41.89941406 108.30102539 C-40.58428484 106.54469309 -39.28820657 104.77615613 -38 103 C-37.58830566 102.43796875 -37.17661133 101.8759375 -36.75244141 101.296875 C-14.99299262 71.23867407 -3.77935846 36.63109899 0 0 Z " fill="#FFFDFE" transform="translate(1079,895)"/>
<path d="M0 0 C0.33 0 0.66 0 1 0 C1.10022461 0.70382812 1.20044922 1.40765625 1.30371094 2.1328125 C4.19566318 22.26258011 4.19566318 22.26258011 9 42 C9.19255371 42.67305176 9.38510742 43.34610352 9.58349609 44.03955078 C18.61611951 75.14873674 35.82240941 101.75243793 58 125 C58.79921875 125.85207031 59.5984375 126.70414063 60.421875 127.58203125 C67.05880763 134.46839108 74.30923025 140.34732545 82 146 C82.56783203 146.41749512 83.13566406 146.83499023 83.72070312 147.26513672 C113.98393509 169.16341679 148.14377818 180.1625435 185 184 C185 184.33 185 184.66 185 185 C123.95 185 62.9 185 0 185 C0 123.95 0 62.9 0 0 Z " fill="#FFFDFE" transform="translate(0,895)"/>
<path d="M0 0 C62.37 0 124.74 0 189 0 C189 0.33 189 0.66 189 1 C187.70191406 1.07476562 186.40382812 1.14953125 185.06640625 1.2265625 C143.08204021 4.08895492 102.72016335 20.19402347 71 48 C69.7625 49.07314453 69.7625 49.07314453 68.5 50.16796875 C57.45853812 59.91550932 47.69208827 70.13578062 39 82 C38.58395508 82.56638184 38.16791016 83.13276367 37.73925781 83.71630859 C15.83796204 113.98039097 4.83771884 148.14125864 1 185 C0.67 185 0.34 185 0 185 C0 123.95 0 62.9 0 0 Z " fill="#FFFDFE" transform="translate(0,0)"/>
<path d="M0 0 C60.39 0 120.78 0 183 0 C183 62.37 183 124.74 183 189 C182.67 189 182.34 189 182 189 C181.88785156 187.05287109 181.88785156 187.05287109 181.7734375 185.06640625 C178.95065248 143.66298486 163.21075781 103.51307476 136 72 C135.34128906 71.23171875 134.68257812 70.4634375 134.00390625 69.671875 C131.71507931 67.06807188 129.37325523 64.52717676 127 62 C126.50258301 61.46858398 126.00516602 60.93716797 125.49267578 60.38964844 C92.33122131 25.25155054 47.35746131 6.62369853 0 1 C0 0.67 0 0.34 0 0 Z " fill="#FFFDFE" transform="translate(897,0)"/>
</svg>